<?xml version="1.0" encoding="UTF-8" standalone="no"?>
<svg
   xmlns:dc="http://purl.org/dc/elements/1.1/"
   xmlns:cc="http://creativecommons.org/ns#"
   xmlns:rdf="http://www.w3.org/1999/02/22-rdf-syntax-ns#"
   xmlns:svg="http://www.w3.org/2000/svg"
   xmlns="http://www.w3.org/2000/svg"
   xmlns:xlink="http://www.w3.org/1999/xlink"
   xmlns:sodipodi="http://sodipodi.sourceforge.net/DTD/sodipodi-0.dtd"
   xmlns:inkscape="http://www.inkscape.org/namespaces/inkscape"
   width="560pt"
   height="513.35992pt"
   version="1.1"
   viewBox="0 0 560 513.35992"
   id="svg165"
   sodipodi:docname="analysis.svg"
   inkscape:version="0.92.5 (2060ec1f9f, 2020-04-08)">
  <metadata
     id="metadata169">
    <rdf:RDF>
      <cc:Work
         rdf:about="">
        <dc:format>image/svg+xml</dc:format>
        <dc:type
           rdf:resource="http://purl.org/dc/dcmitype/StillImage" />
      </cc:Work>
    </rdf:RDF>
  </metadata>
  <sodipodi:namedview
     pagecolor="#ffffff"
     bordercolor="#666666"
     borderopacity="1"
     objecttolerance="10"
     gridtolerance="10"
     guidetolerance="10"
     inkscape:pageopacity="0"
     inkscape:pageshadow="2"
     inkscape:window-width="1848"
     inkscape:window-height="1009"
     id="namedview167"
     showgrid="false"
     inkscape:zoom="0.87428571"
     inkscape:cx="337.30392"
     inkscape:cy="261.15543"
     inkscape:window-x="0"
     inkscape:window-y="34"
     inkscape:window-maximized="1"
     inkscape:current-layer="g163" />
  <defs
     id="defs115">
    <linearGradient
       inkscape:collect="always"
       id="linearGradient1020">
      <stop
         style="stop-color:#ee1d52;stop-opacity:1;"
         offset="0"
         id="stop1016" />
      <stop
         style="stop-color:#ee1d52;stop-opacity:0;"
         offset="1"
         id="stop1018" />
    </linearGradient>
    <symbol
       id="e"
       overflow="visible"
       style="overflow:visible">
      <path
         d="m 39.078,-2.3281 c -2.0117,1.043 -4.1094,1.8281 -6.2969,2.3594 -2.1875,0.5313 -4.4648,0.79688 -6.8281,0.79688 -7.0859,0 -12.699,-1.9766 -16.844,-5.9375 -4.1367,-3.957 -6.2031,-9.3281 -6.2031,-16.109 0,-6.7891 2.0664,-12.164 6.2031,-16.125 4.1445,-3.9688 9.7578,-5.9531 16.844,-5.9531 2.3633,0 4.6406,0.26562 6.8281,0.79688 2.1875,0.53126 4.2852,1.3242 6.2969,2.375 v 8.7969 c -2.0312,-1.3828 -4.0391,-2.3984 -6.0156,-3.0469 -1.9688,-0.64453 -4.0469,-0.96875 -6.2344,-0.96875 -3.9062,0 -6.9844,1.2578 -9.2344,3.7656 -2.2422,2.5 -3.3594,5.9531 -3.3594,10.359 0,4.3867 1.1172,7.8359 3.3594,10.344 2.25,2.5 5.3281,3.75 9.2344,3.75 2.1875,0 4.2656,-0.32031 6.2344,-0.96875 1.9766,-0.64453 3.9844,-1.6602 6.0156,-3.0469 z"
         id="path100"
         inkscape:connector-curvature="0" />
    </symbol>
    <symbol
       id="a"
       overflow="visible"
       style="overflow:visible">
      <path
         d="m 16.031,-40.953 v 9.0625 h 10.516 v 7.2812 H 16.031 v 13.531 c 0,1.4805 0.28906,2.4805 0.875,3 0.59375,0.52344 1.7656,0.78125 3.5156,0.78125 h 5.2344 v 7.2969 h -8.7344 c -4.0312,0 -6.8867,-0.83594 -8.5625,-2.5156 -1.6797,-1.6875 -2.5156,-4.5391 -2.5156,-8.5625 v -13.531 H 0.7654 v -7.2812 h 5.0781 v -9.0625 z"
         id="path103"
         inkscape:connector-curvature="0" />
    </symbol>
    <symbol
       id="d"
       overflow="visible"
       style="overflow:visible">
      <path
         d="M 26.594,-27.234 V -44.312 H 36.86 V 0 H 26.594 v -4.6094 c -1.3984,1.875 -2.9453,3.25 -4.6406,4.125 -1.6875,0.875 -3.6406,1.3125 -5.8594,1.3125 -3.9297,0 -7.1562,-1.5625 -9.6875,-4.6875 -2.5234,-3.125 -3.7812,-7.1445 -3.7812,-12.062 0,-4.9141 1.2578,-8.9375 3.7812,-12.062 2.5312,-3.125 5.7578,-4.6875 9.6875,-4.6875 2.1953,0 4.1445,0.44531 5.8438,1.3281 1.707,0.88672 3.2578,2.2578 4.6562,4.1094 z m -6.7188,20.656 c 2.1875,0 3.8516,-0.79688 5,-2.3906 1.1445,-1.5938 1.7188,-3.9102 1.7188,-6.9531 0,-3.0391 -0.57422,-5.3594 -1.7188,-6.9531 -1.1484,-1.5938 -2.8125,-2.3906 -5,-2.3906 -2.168,0 -3.8242,0.79688 -4.9688,2.3906 -1.1484,1.5938 -1.7188,3.9141 -1.7188,6.9531 0,3.043 0.57031,5.3594 1.7188,6.9531 1.1445,1.5938 2.8008,2.3906 4.9688,2.3906 z"
         id="path106"
         inkscape:connector-curvature="0" />
    </symbol>
    <symbol
       id="c"
       overflow="visible"
       style="overflow:visible">
      <path
         d="m 21.875,-6.5781 c 2.1758,0 3.8359,-0.79688 4.9844,-2.3906 1.1562,-1.5938 1.7344,-3.9102 1.7344,-6.9531 0,-3.0391 -0.57812,-5.3594 -1.7344,-6.9531 -1.1484,-1.5938 -2.8086,-2.3906 -4.9844,-2.3906 -2.1875,0 -3.8672,0.80469 -5.0312,2.4062 -1.168,1.6055 -1.75,3.918 -1.75,6.9375 0,3.0234 0.58203,5.3359 1.75,6.9375 1.1641,1.6055 2.8438,2.4062 5.0312,2.4062 z m -6.7812,-20.656 c 1.4062,-1.8516 2.9609,-3.2227 4.6719,-4.1094 1.707,-0.88281 3.6719,-1.3281 5.8906,-1.3281 3.9375,0 7.1641,1.5625 9.6875,4.6875 2.5195,3.125 3.7812,7.1484 3.7812,12.062 0,4.918 -1.2617,8.9375 -3.7812,12.062 -2.5234,3.125 -5.75,4.6875 -9.6875,4.6875 -2.2188,0 -4.1836,-0.44531 -5.8906,-1.3281 -1.7109,-0.88281 -3.2656,-2.2539 -4.6719,-4.1094 V -7e-4 H 4.9058 v -44.312 h 10.188 z"
         id="path109"
         inkscape:connector-curvature="0" />
    </symbol>
    <symbol
       id="b"
       overflow="visible"
       style="overflow:visible">
      <path
         d="m 5.3594,-42.516 h 10.953 V 0 H 5.3594 Z"
         id="path112"
         inkscape:connector-curvature="0" />
    </symbol>
    <linearGradient
       inkscape:collect="always"
       xlink:href="#linearGradient1020"
       id="linearGradient1096"
       x1="560"
       y1="349.996"
       x2="618.33197"
       y2="349.996"
       gradientUnits="userSpaceOnUse" />
    <linearGradient
       inkscape:collect="always"
       xlink:href="#linearGradient1020"
       id="linearGradient1098"
       x1="128.33"
       y1="349.996"
       x2="209.998"
       y2="349.996"
       gradientUnits="userSpaceOnUse" />
    <linearGradient
       inkscape:collect="always"
       xlink:href="#linearGradient1020"
       id="linearGradient1100"
       x1="446.75"
       y1="361.664"
       x2="509.918"
       y2="361.664"
       gradientUnits="userSpaceOnUse" />
    <linearGradient
       inkscape:collect="always"
       xlink:href="#linearGradient1020"
       id="linearGradient1102"
       x1="504.57001"
       y1="422.0025"
       x2="572.78497"
       y2="422.0025"
       gradientUnits="userSpaceOnUse" />
    <linearGradient
       inkscape:collect="always"
       xlink:href="#linearGradient1020"
       id="linearGradient1104"
       x1="466.67197"
       y1="431.66507"
       x2="629.97101"
       y2="431.66507"
       gradientUnits="userSpaceOnUse" />
    <linearGradient
       inkscape:collect="always"
       xlink:href="#linearGradient1020"
       id="linearGradient1106"
       x1="186.67"
       y1="233.33549"
       x2="513.33002"
       y2="233.33549"
       gradientUnits="userSpaceOnUse" />
    <linearGradient
       inkscape:collect="always"
       xlink:href="#linearGradient1020"
       id="linearGradient1108"
       x1="560"
       y1="163.336"
       x2="583.33197"
       y2="163.336"
       gradientUnits="userSpaceOnUse" />
    <linearGradient
       inkscape:collect="always"
       xlink:href="#linearGradient1020"
       id="linearGradient1110"
       x1="524.99799"
       y1="99.164001"
       x2="583.33002"
       y2="99.164001"
       gradientUnits="userSpaceOnUse" />
    <linearGradient
       inkscape:collect="always"
       xlink:href="#linearGradient1020"
       id="linearGradient1112"
       x1="116.67"
       y1="163.336"
       x2="140.002"
       y2="163.336"
       gradientUnits="userSpaceOnUse" />
    <linearGradient
       inkscape:collect="always"
       xlink:href="#linearGradient1020"
       id="linearGradient1114"
       x1="116.668"
       y1="99.164001"
       x2="175"
       y2="99.164001"
       gradientUnits="userSpaceOnUse" />
    <linearGradient
       inkscape:collect="always"
       xlink:href="#linearGradient1020"
       id="linearGradient1116"
       x1="408.31238"
       y1="484.17981"
       x2="455"
       y2="484.17981"
       gradientUnits="userSpaceOnUse" />
    <linearGradient
       inkscape:collect="always"
       xlink:href="#linearGradient1020"
       id="linearGradient1118"
       x1="244.99969"
       y1="484.18011"
       x2="291.68732"
       y2="484.18011"
       gradientUnits="userSpaceOnUse" />
    <linearGradient
       inkscape:collect="always"
       xlink:href="#linearGradient1020"
       id="linearGradient1120"
       x1="221.67"
       y1="524.99597"
       x2="478.34"
       y2="524.99597"
       gradientUnits="userSpaceOnUse" />
    <linearGradient
       inkscape:collect="always"
       xlink:href="#linearGradient1020"
       id="linearGradient1122"
       x1="70"
       y1="233.33"
       x2="630"
       y2="233.33"
       gradientUnits="userSpaceOnUse" />
  </defs>
  <g
     id="g163"
     transform="translate(-70,-23.33)">
    <path
       d="M 455,443.33 H 105 c -9.2812,0 -18.184,-3.6875 -24.75,-10.25 C 73.6875,426.5175 70,417.615 70,408.33 v -350 C 70,49.0488 73.6875,40.146 80.25,33.584 86.8164,27.0176 95.719,23.33 105,23.33 h 490 c 9.2812,0 18.184,3.6875 24.75,10.254 C 626.3125,40.1465 630,49.049 630,58.33 V 396.67 H 606.668 V 58.33 c 0,-3.0938 -1.2305,-6.0586 -3.418,-8.25 -2.1875,-2.1875 -5.1562,-3.4141 -8.25,-3.4141 H 105 c -6.4414,0 -11.668,5.2227 -11.668,11.664 v 350 c 0,3.0938 1.2305,6.0625 3.418,8.25 2.1875,2.1875 5.1562,3.418 8.25,3.418 h 350 z"
       id="path117"
       inkscape:connector-curvature="0"
       style="fill-opacity:1;fill:url(#linearGradient1122);opacity:1;" />
    <path
       d="m 221.67,513.33 h 256.67 v 23.332 H 221.67 Z"
       id="path119"
       inkscape:connector-curvature="0"
       style="fill-opacity:1;fill:url(#linearGradient1120);opacity:1;" />
    <path
       d="m 245,536.67 v -23.336 c 6.3047,0.40625 12.477,-1.9219 16.945,-6.3867 4.4648,-4.4688 6.793,-10.641 6.3867,-16.945 v -58.332 h 23.332 v 58.332 h 0.004 c 0.36719,12.484 -4.4297,24.57 -13.266,33.402 -8.832,8.8359 -20.918,13.633 -33.402,13.266 z"
       id="path121"
       inkscape:connector-curvature="0"
       style="fill-opacity:1;fill:url(#linearGradient1118);opacity:1;" />
    <path
       d="m 455,536.67 c -12.484,0.36719 -24.57,-4.4297 -33.402,-13.266 -8.8359,-8.832 -13.633,-20.918 -13.266,-33.402 V 431.67 h 23.332 v 58.332 h 0.004 c -0.40234,6.3047 1.9258,12.473 6.3906,16.941 4.4688,4.4648 10.637,6.793 16.941,6.3906 z"
       id="path123"
       inkscape:connector-curvature="0"
       style="fill-opacity:1;fill:url(#linearGradient1116);opacity:1;" />
    <path
       d="m 140,128.33 h -23.332 v -23.332 c 0,-9.2812 3.6875,-18.184 10.25,-24.75 6.5625,-6.5625 15.465,-10.25 24.75,-10.25 H 175 V 93.33 H 151.668 C 145.2227,93.33 140,98.5566 140,104.998 Z"
       id="path125"
       inkscape:connector-curvature="0"
       style="fill-opacity:1;fill:url(#linearGradient1114);opacity:1;" />
    <path
       d="m 116.67,151.67 h 23.332 v 23.332 H 116.67 Z"
       id="path127"
       inkscape:connector-curvature="0"
       style="fill-opacity:1;fill:url(#linearGradient1112);opacity:1;" />
    <path
       d="m 583.33,128.33 h -23.332 v -23.332 c 0,-3.0938 -1.2305,-6.0625 -3.418,-8.25 -2.1875,-2.1875 -5.1562,-3.418 -8.25,-3.418 H 524.998 V 69.998 h 23.332 c 9.2852,0 18.188,3.6875 24.75,10.25 6.5625,6.5664 10.25,15.469 10.25,24.75 z"
       id="path129"
       inkscape:connector-curvature="0"
       style="fill-opacity:1;fill:url(#linearGradient1110);opacity:1;" />
    <path
       d="m 560,151.67 h 23.332 v 23.332 H 560 Z"
       id="path131"
       inkscape:connector-curvature="0"
       style="fill-opacity:1;fill:url(#linearGradient1108);opacity:1;" />
    <path
       d="m 350,396.67 c -43.32,0 -84.863,-17.211 -115.49,-47.84 -30.633,-30.633 -47.84,-72.176 -47.84,-115.5 0,-43.316 17.207,-84.863 47.84,-115.49 C 265.139,87.207 306.682,70 350,70 c 43.318,0 84.863,17.207 115.49,47.84 30.633,30.629 47.84,72.176 47.84,115.49 -0.0469,43.305 -17.27,84.824 -47.891,115.45 -30.621,30.626 -72.137,47.844 -115.44,47.891 z m 0,-303.34 c -37.129,0 -72.738,14.75 -98.996,41.008 C 224.75,160.592 210,196.201 210,233.33 c 0,37.133 14.75,72.742 41.004,98.996 26.258,26.254 61.867,41.004 98.996,41.004 37.129,0 72.738,-14.75 98.996,-41.004 C 475.25,306.072 490,270.463 490,233.33 489.96094,196.213 475.195,160.627 448.949,134.381 422.703,108.135 387.117,93.373 350,93.33 Z"
       id="path133"
       inkscape:connector-curvature="0"
       style="fill-opacity:1;fill:url(#linearGradient1106);opacity:1;" />
    <path
       d="m 581.76,513.33 c -12.797,0.0352 -25.078,-5.0508 -34.102,-14.129 l -77.57,-77.57 c -4.5547,-4.5547 -4.5547,-11.941 0,-16.496 l 51.719,-51.719 c 4.5547,-4.5547 11.941,-4.5547 16.496,0 l 77.57,77.57 c 9.0273,9.0586 14.098,21.324 14.098,34.109 0,12.785 -5.0703,25.051 -14.098,34.105 -9.0273,9.0781 -21.312,14.168 -34.113,14.129 z m -86.93,-99.949 69.324,69.324 c 4.7461,4.5312 11.051,7.0586 17.613,7.0586 6.5586,0 12.863,-2.5273 17.609,-7.0586 4.6602,-4.6758 7.2773,-11.008 7.2773,-17.609 0,-6.6016 -2.6172,-12.934 -7.2773,-17.609 l -69.324,-69.324 z"
       id="path135"
       inkscape:connector-curvature="0"
       style="fill-opacity:1;fill:url(#linearGradient1104);opacity:1;" />
    <path
       d="m 504.57,439.61 51.715,-51.715 16.5,16.5 -51.715,51.715 z"
       id="path137"
       inkscape:connector-curvature="0"
       style="fill-opacity:1;fill:url(#linearGradient1102);opacity:1;" />
    <path
       d="m 446.75,346.58 16.5,-16.5 46.668,46.668 -16.5,16.5 z"
       id="path139"
       inkscape:connector-curvature="0"
       style="fill-opacity:1;fill:url(#linearGradient1100);opacity:1;" />
    <path
       d="m 128.33,338.33 h 81.668 v 23.332 H 128.33 Z"
       id="path141"
       inkscape:connector-curvature="0"
       style="fill-opacity:1;fill:url(#linearGradient1098);opacity:1;" />
    <path
       d="m 560,338.33 h 58.332 v 23.332 H 560 Z"
       id="path143"
       inkscape:connector-curvature="0"
       style="fill-opacity:1;fill:url(#linearGradient1096);opacity:1;" />
    <path
       d="m 291.67,291.67 h -46.668 c -6.4414,0 -11.668,-5.2266 -11.668,-11.668 v -81.668 c 0,-6.4414 5.2266,-11.664 11.668,-11.664 h 46.668 c 3.0938,0 6.0586,1.2266 8.25,3.4141 2.1875,2.1914 3.4141,5.1562 3.4141,8.25 v 81.668 c 0,3.0938 -1.2266,6.0625 -3.4141,8.25 -2.1914,2.1875 -5.1562,3.418 -8.25,3.418 z m -35,-23.332 h 23.332 V 210.002 H 256.67 Z"
       id="path145"
       inkscape:connector-curvature="0"
       style="fill-opacity:1;fill:#30cce0;opacity:1" />
    <path
       d="m 373.33,291.67 h -46.664 c -6.4453,0 -11.668,-5.2266 -11.668,-11.668 v -116.67 c 0,-6.4414 5.2227,-11.664 11.668,-11.664 h 46.668 -0.004 c 3.0938,0 6.0625,1.2266 8.25,3.4141 2.1875,2.1914 3.418,5.1562 3.418,8.25 v 116.67 c 0,3.0938 -1.2305,6.0625 -3.418,8.25 -2.1875,2.1875 -5.1562,3.418 -8.25,3.418 z m -35,-23.332 h 23.332 l 0.004,-93.336 H 338.33 Z"
       id="path147"
       inkscape:connector-curvature="0"
       style="fill-opacity:1;fill:#30cce0;opacity:1" />
    <path
       d="m 455,291.67 h -46.668 c -6.4414,0 -11.664,-5.2266 -11.664,-11.668 v -81.668 c 0,-6.4414 5.2227,-11.664 11.664,-11.664 H 455 c 3.0938,0 6.0625,1.2266 8.25,3.4141 2.1875,2.1914 3.418,5.1562 3.418,8.25 v 81.668 c 0,3.0938 -1.2305,6.0625 -3.418,8.25 -2.1875,2.1875 -5.1562,3.418 -8.25,3.418 z m -35,-23.332 h 23.332 V 210.002 H 420 Z"
       id="path149"
       inkscape:connector-curvature="0"
       style="fill-opacity:1;fill:#30cce0;opacity:1" />
  </g>
</svg>
